HIERARCHY
ROOT Hips
{
	OFFSET 0.00000 0.00000 0.00000
	CHANNELS 6 Xposition Yposition Zposition Zrotation Yrotation Xrotation 
	JOINT LHipJoint
	{
		OFFSET 0 0 0
		CHANNELS 3 Zrotation Yrotation Xrotation
		JOINT LeftUpLeg
		{
			OFFSET 1.28366 -1.58472 0.87544
			CHANNELS 3 Zrotation Yrotation Xrotation
			JOINT LeftLeg
			{
				OFFSET 2.18587 -6.00562 0.00000
				CHANNELS 3 Zrotation Yrotation Xrotation
				JOINT LeftFoot
				{
					OFFSET 2.39085 -6.56880 0.00000
					CHANNELS 3 Zrotation Yrotation Xrotation
					JOINT LeftToeBase
					{
						OFFSET 0.12003 -0.32979 2.03101
						CHANNELS 3 Zrotation Yrotation Xrotation
						End Site
						{
							OFFSET 0.00000 -0.00000 1.04074
						}
					}
				}
			}
		}
	}
	JOINT RHipJoint
	{
		OFFSET 0 0 0
		CHANNELS 3 Zrotation Yrotation Xrotation
		JOINT RightUpLeg
		{
			OFFSET -1.21795 -1.58472 0.87544
			CHANNELS 3 Zrotation Yrotation Xrotation
			JOINT RightLeg
			{
				OFFSET -2.22714 -6.11902 0.00000
				CHANNELS 3 Zrotation Yrotation Xrotation
				JOINT RightFoot
				{
					OFFSET -2.40306 -6.60235 0.00000
					CHANNELS 3 Zrotation Yrotation Xrotation
					JOINT RightToeBase
					{
						OFFSET -0.15519 -0.42640 1.91430
						CHANNELS 3 Zrotation Yrotation Xrotation
						End Site
						{
							OFFSET -0.00000 -0.00000 0.99082
						}
					}
				}
			}
		}
	}
	JOINT LowerBack
	{
		OFFSET 0 0 0
		CHANNELS 3 Zrotation Yrotation Xrotation
		JOINT Spine
		{
			OFFSET 0.01180 1.76430 -0.06387
			CHANNELS 3 Zrotation Yrotation Xrotation
			JOINT Spine1
			{
				OFFSET -0.00388 1.74651 0.09536
				CHANNELS 3 Zrotation Yrotation Xrotation
				JOINT Neck
				{
					OFFSET 0 0 0
					CHANNELS 3 Zrotation Yrotation Xrotation
					JOINT Neck1
					{
						OFFSET 0.04111 1.46174 0.14397
						CHANNELS 3 Zrotation Yrotation Xrotation
						JOINT Head
						{
							OFFSET 0.00502 1.44580 -0.31711
							CHANNELS 3 Zrotation Yrotation Xrotation
							End Site
							{
								OFFSET -0.00395 1.49251 -0.12327
							}
						}
					}
				}
				JOINT LeftShoulder
				{
					OFFSET 0 0 0
					CHANNELS 3 Zrotation Yrotation Xrotation
					JOINT LeftArm
					{
						OFFSET 2.70917 1.34870 -0.15417
						CHANNELS 3 Zrotation Yrotation Xrotation
						JOINT LeftForeArm
						{
							OFFSET 4.46610 -0.00000 -0.00000
							CHANNELS 3 Zrotation Yrotation Xrotation
							JOINT LeftHand
							{
								OFFSET 3.41414 -0.00000 0.00000
								CHANNELS 3 Zrotation Yrotation Xrotation
								JOINT LeftFingerBase
								{
									OFFSET 0 0 0
									CHANNELS 3 Zrotation Yrotation Xrotation
									JOINT LeftHandIndex1
									{
										OFFSET 0.32830 -0.00000 0.00000
										CHANNELS 3 Zrotation Yrotation Xrotation
										End Site
										{
											OFFSET 0.26468 -0.00000 0.00000
										}
									}
								}
								JOINT LThumb
								{
									OFFSET 0 0 0
									CHANNELS 3 Zrotation Yrotation Xrotation
									End Site
									{
										OFFSET 0.26872 -0.00000 0.26872
									}
								}
							}
						}
					}
				}
				JOINT RightShoulder
				{
					OFFSET 0 0 0
					CHANNELS 3 Zrotation Yrotation Xrotation
					JOINT RightArm
					{
						OFFSET -3.06316 1.13725 -0.10883
						CHANNELS 3 Zrotation Yrotation Xrotation
						JOINT RightForeArm
						{
							OFFSET -4.40431 -0.00000 0.00000
							CHANNELS 3 Zrotation Yrotation Xrotation
							JOINT RightHand
							{
								OFFSET -3.04688 -0.00000 0.00000
								CHANNELS 3 Zrotation Yrotation Xrotation
								JOINT RightFingerBase
								{
									OFFSET 0 0 0
									CHANNELS 3 Zrotation Yrotation Xrotation
									JOINT RightHandIndex1
									{
										OFFSET -0.50049 -0.00000 0.00000
										CHANNELS 3 Zrotation Yrotation Xrotation
										End Site
										{
											OFFSET -0.40351 -0.00000 0.00000
										}
									}
								}
								JOINT RThumb
								{
									OFFSET 0 0 0
									CHANNELS 3 Zrotation Yrotation Xrotation
									End Site
									{
										OFFSET -0.40967 -0.00000 0.40967
									}
								}
							}
						}
					}
				}
			}
		}
	}
}
MOTION
Frames: 15
Frame Time: .0083333
-24.743 15.4761 18.0211 0 0 0 0 0 0 -21 0 0 0 0 0 0 0 0 0 0 0 0 0 0 21 0 0 0 0 0 0 0 0 0 0 0 0 0 0 0 0 0 0 0 0 0 0 -16 0 0 21 0 0 11 0 0 0 -8 0 0 0 0 0 0 0 0 0 0 0 0 0 0 0 0 0 0 0 0 8 0 0 0 0 0 0 0 0 0 0 0 0 0 0 0 0 0
-24.7430 15.4761 18.0211 -177.5060 7.3270 -170.6450 0.0000 0.0000 0.0000 -19.9469 5.2346 -15.6382 3.6843 11.7280 34.7763 0.6309 7.9006 -19.9055 0.0160 -0.8174 -2.2464 0.0000 0.0000 0.0000 27.0797 8.7943 -24.7997 -3.2005 -11.0128 32.3231 -0.4420 -6.0346 -16.2139 -0.7104 -5.3866 15.0145 0.1189 0.9443 -3.0780 -0.1622 1.4044 -3.3987 -0.2139 0.7616 -1.7538 -5.3463 -6.0960 -19.0552 11.2421 -9.2141 23.1530 3.6480 -2.9146 11.5359 0.0000 -0.0000 0.0000 -90.3518 -1.6791 27.0119 9.9539 -16.6675 -1.4617 -0.0000 -0.0000 8.8586 27.8555 11.0228 5.7698 -7.1250 0.0000 -0.0000 0.6782 42.4037 -0.0434 0.0000 -0.0000 0.0000 92.3713 -4.5585 21.1483 -15.8154 25.2697 -3.5668 0.0000 0.0000 2.5670 -17.6574 6.7668 -2.1480 7.1250 -0.0000 -0.0000 6.6853 -22.8946 3.5815
-24.7376 15.4782 18.0064 -177.4960 7.3200 -170.5900 0.0000 0.0000 0.0000 -19.8803 5.3342 -15.8118 3.7277 11.7890 34.9896 0.6050 7.9453 -19.6781 0.0356 -1.2171 -3.3463 0.0000 0.0000 0.0000 27.0978 8.8312 -24.7450 -3.1912 -10.9984 32.2743 -0.4494 -6.0346 -16.3065 -0.7316 -5.4647 15.2388 0.2057 0.9279 -3.0786 -0.1669 1.3837 -3.4351 -0.2681 0.7504 -1.7890 -5.2179 -6.1109 -19.0411 11.1819 -9.2585 23.2237 3.5989 -2.9246 11.5544 -0.0000 0.0000 0.0000 -90.3760 -1.5166 27.6845 10.0899 -16.8800 -1.5009 -0.0000 -0.0000 8.4356 27.7532 11.0378 5.7528 -7.1250 0.0000 -0.0000 0.5845 42.4095 -0.0374 -0.0000 0.0000 0.0000 92.5522 -4.4295 20.7950 -15.9663 25.4750 -3.6315 0.0000 0.0000 3.2222 -17.3040 7.1062 -2.2071 7.1250 -0.0000 -0.0000 6.9359 -22.5567 3.7716
-24.7299 15.4789 17.9919 -177.4850 7.3459 -170.5280 0.0000 0.0000 0.0000 -19.8015 5.4575 -16.0012 3.7744 11.8540 35.2174 0.6086 7.7156 -19.5184 0.0329 -1.1715 -3.2209 0.0000 0.0000 0.0000 27.1439 8.7788 -24.7314 -3.1804 -10.9816 32.2178 -0.4563 -5.9482 -16.3205 -0.7263 -5.4452 15.1828 0.2337 0.9334 -3.0939 -0.1458 1.3926 -3.4556 -0.2621 0.7552 -1.8014 -5.2576 -6.1510 -19.0753 11.1824 -9.3073 23.2703 3.5985 -2.9468 11.5858 0.0000 -0.0000 0.0000 -90.4417 -1.4480 28.1753 10.1615 -16.9918 -1.5218 -0.0000 -0.0000 8.2646 27.7318 10.9924 5.7244 -7.1250 0.0000 -0.0000 0.5688 42.3563 -0.0371 0.0000 -0.0000 0.0000 92.4847 -4.5639 22.2366 -16.3907 26.0475 -3.8159 0.0000 0.0000 1.2224 -18.1609 6.6379 -2.1715 7.1250 -0.0000 -0.0000 6.3185 -23.0081 3.3661
-24.7218 15.4809 17.9770 -177.5190 7.3756 -170.4650 0.0000 0.0000 0.0000 -19.7725 5.5977 -16.1942 3.8207 11.9179 35.4423 0.6109 7.5160 -19.3739 0.0317 -1.1491 -3.1591 0.0000 0.0000 0.0000 27.1430 8.7793 -24.6905 -3.1681 -10.9623 32.1528 -0.4593 -5.9351 -16.3473 -0.7178 -5.4142 15.0938 0.2224 0.9488 -3.1134 -0.1437 1.4165 -3.4931 -0.2533 0.7687 -1.8293 -5.3282 -6.2103 -19.0566 11.2299 -9.3836 23.3311 3.6180 -2.9769 11.6197 0.0000 0.0000 0.0000 -90.4683 -1.2963 29.0122 10.2982 -17.2047 -1.5620 -0.0000 -0.0000 7.8045 27.5961 10.9490 5.6697 -7.1250 0.0000 -0.0000 0.4499 42.2934 -0.0300 0.0000 0.0000 0.0000 92.5517 -4.5160 22.4462 -16.5741 26.2929 -3.8968 0.0000 0.0000 1.0621 -17.9217 6.7089 -2.1638 7.1250 -0.0000 -0.0000 6.4926 -22.9439 3.4696
-24.7152 15.4824 17.9631 -177.5030 7.3856 -170.4280 0.0000 0.0000 0.0000 -19.6842 5.7979 -16.3761 3.8649 11.9784 35.6556 0.6027 7.2861 -19.0957 0.0391 -1.2759 -3.5083 0.0000 0.0000 0.0000 27.1681 8.8261 -24.6134 -3.1573 -10.9454 32.0959 -0.4703 -5.8733 -16.4324 -0.7634 -5.5796 15.5693 0.3144 0.9444 -3.0755 -0.1533 1.4120 -3.5382 -0.3163 0.7652 -1.8946 -5.2653 -6.2075 -18.9940 11.2345 -9.3958 23.3500 3.6091 -2.9742 11.6130 -0.0000 0.0000 0.0000 -90.4930 -1.1569 29.4835 10.3845 -17.3387 -1.5876 -0.0000 -0.0000 7.6940 27.5310 10.7874 5.5722 -7.1250 0.0000 -0.0000 0.4045 42.1059 -0.0289 -0.0000 0.0000 0.0000 92.6221 -4.5096 22.7905 -16.7699 26.5535 -3.9840 0.0000 0.0000 0.7122 -18.3392 6.6449 -2.1966 7.1250 -0.0000 -0.0000 6.1874 -22.9933 3.2975
-24.7088 15.4837 17.9487 -177.4680 7.4013 -170.3620 0.0000 0.0000 0.0000 -19.5660 5.8608 -16.5171 3.9079 12.0369 35.8626 0.6197 6.9256 -18.9804 0.0240 -1.0005 -2.7502 0.0000 0.0000 0.0000 27.2397 8.8114 -24.5768 -3.1455 -10.9270 32.0341 -0.4718 -5.8857 -16.4606 -0.7380 -5.4883 15.3066 0.3763 0.9469 -3.1048 -0.1189 1.4168 -3.5584 -0.3152 0.7676 -1.8986 -5.2631 -6.2460 -19.0149 11.2029 -9.4465 23.4053 3.5896 -2.9971 11.6412 0.0000 -0.0000 0.0000 -90.5715 -1.0804 30.0549 10.4756 -17.4800 -1.6149 -0.0000 -0.0000 7.4843 27.4642 10.8080 5.5669 -7.1250 0.0000 -0.0000 0.3426 42.1218 -0.0243 0.0000 -0.0000 0.0000 92.3799 -4.5311 23.6265 -17.0294 26.8965 -4.1006 0.0000 -0.0000 -0.1166 -18.1983 6.5714 -2.1546 7.1250 -0.0000 -0.0000 6.2924 -23.0760 3.3421
-24.7017 15.4849 17.9349 -177.4940 7.3754 -170.3130 0.0000 0.0000 0.0000 -19.5224 5.9875 -16.6867 3.9474 12.0901 36.0516 0.6038 6.7722 -18.6870 0.0329 -1.1708 -3.2189 0.0000 0.0000 0.0000 27.2234 8.8248 -24.5423 -3.1369 -10.9134 31.9883 -0.4797 -5.8455 -16.5257 -0.7717 -5.6091 15.6544 0.3946 0.9392 -3.1008 -0.1291 1.4093 -3.5982 -0.3368 0.7644 -1.9412 -5.4557 -6.3128 -19.0300 11.3536 -9.5242 23.5022 3.6695 -3.0223 11.7092 0.0000 -0.0000 0.0000 -90.5775 -0.9643 30.6232 10.5660 -17.6200 -1.6421 -0.0000 -0.0000 7.3066 27.1935 10.6155 5.4068 -7.1250 0.0000 -0.0000 0.1153 41.8788 -0.0089 0.0000 -0.0000 0.0000 92.4605 -4.4888 23.6592 -17.1472 27.0514 -4.1541 0.0000 -0.0000 -0.0517 -18.2462 6.7277 -2.2118 7.1250 -0.0000 -0.0000 6.2540 -22.9107 3.3453
-24.6957 15.4869 17.9206 -177.5200 7.3874 -170.2760 0.0000 0.0000 0.0000 -19.4882 6.1132 -16.8273 3.9869 12.1429 36.2394 0.6224 6.4673 -18.6451 0.0204 -0.9224 -2.5352 0.0000 0.0000 0.0000 27.2137 8.8601 -24.4735 -3.1279 -10.8992 31.9407 -0.4829 -5.8760 -16.5892 -0.7617 -5.5734 15.5516 0.4563 0.9559 -3.0988 -0.1461 1.4316 -3.6149 -0.3886 0.7744 -1.9575 -5.4396 -6.3467 -18.9998 11.3397 -9.5729 23.4905 3.6533 -3.0454 11.7020 0.0000 0.0000 0.0000 -90.5993 -0.8970 31.1547 10.6480 -17.7466 -1.6670 -0.0000 -0.0000 7.2186 26.8991 10.4997 5.2818 -7.1250 0.0000 -0.0000 -0.1387 41.7197 0.0112 0.0000 0.0000 0.0000 92.4380 -4.4506 24.1138 -17.2828 27.2290 -4.2159 0.0000 -0.0000 -0.3717 -18.4441 6.6017 -2.1958 7.1250 -0.0000 -0.0000 6.1112 -23.0340 3.2507
-24.6888 15.4867 17.9067 -177.5050 7.3871 -170.2330 0.0000 0.0000 0.0000 -19.4137 6.3832 -17.0327 4.0255 12.1942 36.4226 0.5910 6.4636 -18.3021 0.0577 -1.5506 -4.2653 0.0000 0.0000 0.0000 27.2561 8.8189 -24.4475 -3.1199 -10.8866 31.8984 -0.4812 -5.8674 -16.5613 -0.6683 -5.2279 14.5598 0.5186 0.9557 -3.0939 -0.1366 1.4329 -3.6439 -0.4143 0.7745 -1.9890 -5.3510 -6.3461 -18.9798 11.2740 -9.5815 23.4983 3.6126 -3.0492 11.6929 -0.0000 -0.0000 0.0000 -90.5886 -0.7587 31.8476 10.7798 -17.9500 -1.7075 -0.0000 -0.0000 6.8842 26.8414 10.5888 5.3127 -7.1250 0.0000 -0.0000 -0.1982 41.8128 0.0156 -0.0000 -0.0000 0.0000 92.3937 -4.4477 24.4632 -17.4117 27.3973 -4.2751 0.0000 -0.0000 -0.5671 -18.0898 6.6838 -2.1773 7.1250 -0.0000 -0.0000 6.3698 -22.9631 3.4003
-24.6832 15.4883 17.8934 -177.4980 7.3489 -170.2020 0.0000 0.0000 0.0000 -19.3309 6.4956 -17.1634 4.0647 12.2461 36.6081 0.5903 6.1477 -18.0466 0.0529 -1.4848 -4.0839 0.0000 0.0000 0.0000 27.2722 8.8881 -24.3682 -3.1119 -10.8741 31.8564 -0.4822 -5.9358 -16.6277 -0.6899 -5.3101 14.7951 0.6105 0.9549 -3.0870 -0.1401 1.4310 -3.6522 -0.4696 0.7716 -1.9993 -5.4925 -6.4186 -18.9967 11.3365 -9.6620 23.5439 3.6476 -3.0875 11.7336 0.0000 0.0000 0.0000 -90.5897 -0.6912 32.4452 10.8736 -18.0943 -1.7365 -0.0000 -0.0000 6.7466 26.6317 10.4971 5.2199 -7.1250 0.0000 -0.0000 -0.3779 41.6898 0.0309 0.0000 0.0000 0.0000 92.5155 -4.3354 24.3549 -17.4461 27.4421 -4.2909 0.0000 -0.0000 -0.4000 -18.4724 6.6433 -2.2132 7.1250 -0.0000 -0.0000 6.0896 -22.9893 3.2454
-24.6764 15.4902 17.8795 -177.4920 7.3305 -170.1760 0.0000 0.0000 0.0000 -19.2338 6.4654 -17.2204 4.1032 12.2965 36.7890 0.6174 5.8250 -18.0991 0.0274 -1.0682 -2.9364 0.0000 0.0000 0.0000 27.3135 8.8895 -24.2957 -3.1046 -10.8625 31.8174 -0.4812 -5.9889 -16.6588 -0.6740 -5.2497 14.6220 0.6661 0.9602 -3.0714 -0.1429 1.4382 -3.6650 -0.5041 0.7741 -2.0198 -5.5774 -6.4430 -19.0312 11.4419 -9.6977 23.5856 3.6972 -3.0926 11.7720 0.0000 -0.0000 0.0000 -90.5856 -0.6337 33.0518 10.9623 -18.2305 -1.7641 -0.0000 -0.0000 6.5064 26.4387 10.4116 5.1349 -7.1250 0.0000 -0.0000 -0.5427 41.5756 0.0458 0.0000 -0.0000 0.0000 92.4730 -4.3172 24.7574 -17.5322 27.5540 -4.3306 0.0000 -0.0000 -0.6636 -17.9025 6.7976 -2.1897 7.1250 -0.0000 -0.0000 6.5048 -22.8523 3.4899
-24.6706 15.4901 17.8670 -177.5160 7.3136 -170.1580 0.0000 0.0000 0.0000 -19.1772 6.7099 -17.3894 4.1396 12.3439 36.9597 0.6256 5.4140 -17.8879 0.0207 -0.9286 -2.5523 0.0000 0.0000 0.0000 27.3181 8.7927 -24.2914 -3.1014 -10.8575 31.8006 -0.4881 -5.9053 -16.6749 -0.6667 -5.2218 14.5422 0.6882 0.9589 -3.0427 -0.1326 1.4374 -3.6800 -0.5066 0.7735 -2.0511 -5.5144 -6.4597 -18.9771 11.3683 -9.7210 23.5670 3.6547 -3.1094 11.7480 0.0000 -0.0000 0.0000 -90.6434 -0.5846 33.3674 11.0154 -18.3118 -1.7807 -0.0000 -0.0000 6.5676 26.1976 10.2243 4.9911 -7.1250 0.0000 -0.0000 -0.7407 41.3445 0.0668 0.0000 -0.0000 0.0000 92.4742 -4.2862 24.8493 -17.5803 27.6164 -4.3529 0.0000 -0.0000 -0.6047 -18.0276 6.7442 -2.1888 7.1250 -0.0000 -0.0000 6.4142 -22.9027 3.4332
-24.6655 15.4903 17.8537 -177.5180 7.3005 -170.1440 0.0000 0.0000 0.0000 -19.1255 6.7997 -17.4786 4.1742 12.3887 37.1213 0.6137 5.3221 -17.6901 0.0257 -1.0357 -2.8471 0.0000 0.0000 0.0000 27.3352 8.7744 -24.2456 -3.1006 -10.8561 31.7962 -0.4928 -5.8977 -16.7253 -0.6583 -5.1894 14.4496 0.7283 0.9703 -3.0338 -0.1167 1.4523 -3.6790 -0.5128 0.7801 -2.0544 -5.7081 -6.5189 -18.9862 11.5058 -9.7827 23.5721 3.7293 -3.1364 11.7780 0.0000 -0.0000 0.0000 -90.6676 -0.5018 34.0239 11.1386 -18.5004 -1.8197 -0.0000 -0.0000 6.2124 26.2173 10.3963 5.0781 -7.1250 0.0000 -0.0000 -0.7391 41.5366 0.0631 0.0000 -0.0000 0.0000 92.4271 -4.2513 25.0035 -17.6371 27.6900 -4.3793 0.0000 -0.0000 -0.6532 -18.0774 6.6829 -2.1754 7.1250 -0.0000 -0.0000 6.3789 -22.9646 3.4050
-24.6599 15.4899 17.8416 -177.5230 7.2566 -170.0980 0.0000 0.0000 0.0000 -19.0751 6.9739 -17.6539 4.2084 12.4327 37.2805 0.6012 5.1911 -17.4552 0.0396 -1.2847 -3.5324 0.0000 0.0000 0.0000 27.3311 8.8001 -24.2477 -3.1043 -10.8620 31.8159 -0.5016 -5.8489 -16.7928 -0.6939 -5.3249 14.8376 0.7882 0.9752 -3.0297 -0.1152 1.4591 -3.6916 -0.5450 0.7825 -2.0683 -5.6513 -6.5279 -18.9866 11.4803 -9.8049 23.5758 3.7064 -3.1433 11.7772 0.0000 -0.0000 0.0000 -90.7110 -0.4926 34.3575 11.1815 -18.5660 -1.8333 -0.0000 -0.0000 6.2891 25.7715 10.1030 4.8410 -7.1250 0.0000 -0.0000 -1.1085 41.1694 0.1047 0.0000 -0.0000 0.0000 92.3055 -4.2585 25.5094 -17.6863 27.7536 -4.4022 0.0000 -0.0000 -1.0499 -18.1260 6.5929 -2.1524 7.1250 -0.0000 -0.0000 6.3452 -23.0565 3.3733
